<svg xmlns="http://www.w3.org/2000/svg" viewBox="-0.5 -0.5 231 141">
  <defs/>
  <path fill="#d5e8d4" stroke="#82b366" d="M110 20h100v100H110z" pointer-events="all" style="display:inline"/>
  <path d="M165.8 73.6q-1 0-1.8-.5t-1.2-1.5q-.5-1-.5-2.3 0-1.3.5-2.3.4-1 1.2-1.5.8-.5 1.8-.5t1.8.5q.8.5 1.3 1.5.4 1 .4 2.3 0 1.3-.4 2.3-.5 1-1.3 1.5t-1.8.5zm0-1.3q1 0 1.4-.8.6-.7.6-2.2 0-1.5-.6-2.2-.5-.8-1.4-.8-.9 0-1.4.8-.5.7-.5 2.2 0 1.5.5 2.2.5.8 1.4.8zm-8 1.3q-1 0-1.9-.5-.8-.5-1.2-1.5-.5-1-.5-2.3 0-1.3.5-2.3.4-1 1.2-1.5.8-.5 1.8-.5t1.8.5q.8.5 1.3 1.5.4 1 .4 2.3 0 1.3-.4 2.3-.5 1-1.3 1.5t-1.8.5zm0-1.3q.8 0 1.3-.8.6-.7.6-2.2 0-1.5-.6-2.2-.5-.8-1.4-.8-.9 0-1.4.8-.5.7-.5 2.2 0 1.5.5 2.2.5.8 1.4.8zm-5.2-7.2v8.4H151v-7h-1.8V65zM119.2 15.8q.7-1.3 1-2.6.4-1.4.4-3 0-1.5-.3-3-.4-1.3-1.1-2.6h1.4q.7 1 1 2.5.5 1.5.5 3.1 0 1.7-.4 3.1-.4 1.4-1.1 2.5zm-4.3-2.2q-1 0-1.8-.5t-1.3-1.5q-.4-1-.4-2.3 0-1.3.4-2.3.5-1 1.3-1.5.7-.5 1.8-.5 1 0 1.8.5t1.2 1.5q.5 1 .5 2.3 0 1.3-.5 2.3-.4 1-1.2 1.5-.8.5-1.8.5zm0-1.3q.9 0 1.4-.8.5-.7.5-2.2 0-1.5-.5-2.2-.5-.8-1.4-.8-1 0-1.5.8-.5.7-.5 2.2 0 1.5.5 2.2.6.8 1.5.8zm-5.4-.7q.4 0 .7.3.3.2.3.7v.4l-.3.6-.6 1.7h-1l.5-1.8q-.3-.1-.4-.4-.2-.2-.2-.5 0-.5.3-.7.3-.3.7-.3zm-5.4 2q-1 0-1.8-.5t-1.2-1.5q-.5-1-.5-2.3 0-1.3.5-2.3.4-1 1.2-1.5.8-.5 1.8-.5t1.8.5q.8.5 1.3 1.5.4 1 .4 2.3 0 1.3-.4 2.3-.5 1-1.3 1.5t-1.8.5zm0-1.3q1 0 1.4-.8.6-.7.6-2.2 0-1.5-.6-2.2-.5-.8-1.4-.8-.9 0-1.4.8-.5.7-.5 2.2 0 1.5.5 2.2.5.8 1.4.8zm-5.7 3.5q-.7-1-1.1-2.5-.4-1.4-.4-3 0-1.7.4-3.2.4-1.4 1-2.5h1.5q-.7 1.3-1 2.7-.4 1.3-.4 3 0 1.5.3 2.9.4 1.3 1.1 2.6zM223.8 135.8q.7-1.3 1-2.6.4-1.4.4-3 0-1.5-.3-3-.4-1.3-1.1-2.6h1.4q.7 1 1 2.5.5 1.5.5 3.1 0 1.7-.4 3.1-.4 1.4-1 2.5zm-4.3-2.2q-1 0-1.8-.5t-1.3-1.5q-.4-1-.4-2.3 0-1.3.4-2.3.5-1 1.3-1.5t1.8-.5q1 0 1.8.5t1.2 1.5q.5 1 .5 2.3 0 1.3-.5 2.3-.4 1-1.2 1.5-.8.5-1.8.5zm0-1.3q.9 0 1.4-.8.5-.7.5-2.2 0-1.5-.5-2.2-.5-.8-1.4-.8-1 0-1.5.8-.5.7-.5 2.2 0 1.5.5 2.2.6.8 1.5.8zm-5.2-7.2v8.4h-1.6v-7H211V125zm-4.7 6.5q.4 0 .7.3.3.2.3.7v.4l-.3.6-.6 1.7h-1l.5-1.8q-.3-.1-.4-.4-.2-.2-.2-.5 0-.5.3-.7.3-.3.7-.3zm-5.4 2q-1 0-1.8-.5t-1.2-1.5q-.5-1-.5-2.3 0-1.3.5-2.3.4-1 1.2-1.5.8-.5 1.8-.5t1.8.5q.8.5 1.3 1.5.4 1 .4 2.3 0 1.3-.4 2.3-.5 1-1.3 1.5t-1.8.5zm0-1.3q.9 0 1.4-.8.5-.7.5-2.2 0-1.5-.5-2.2-.5-.8-1.4-.8-.9 0-1.4.8-.5.7-.5 2.2 0 1.5.5 2.2.5.8 1.4.8zM199 125v8.4h-1.5v-7h-1.8V125zm-5.2 10.7q-.7-1-1.1-2.5-.4-1.4-.4-3 0-1.7.4-3.2.4-1.4 1-2.5h1.5q-.7 1.3-1 2.7-.4 1.3-.4 3 0 1.5.3 2.9.4 1.3 1.1 2.6z" style="font-size:12px;font-family:'Montserrat SemiBold';text-anchor:middle"/>
  <path fill="#e1d5e7" stroke="#9673a6" d="M20 40h40v60H20z" pointer-events="all" style="display:inline"/>
  <path d="M42.6 72.2v1.3h-6.2v-1l3.4-3.2.7-1 .2-.8q0-.5-.4-.9-.4-.3-1.1-.3-1.3 0-2 1l-1.1-1q.5-.6 1.3-1 .9-.3 1.9-.3 1.4 0 2.2.6.8.7.8 1.8 0 .7-.3 1.3-.3.6-1.1 1.3l-2.2 2.2zM25.8 35.8q.7-1.3 1-2.6.4-1.4.4-3 0-1.5-.4-3-.3-1.3-1-2.6h1.4q.7 1 1 2.5.5 1.5.5 3.1 0 1.7-.4 3.1-.4 1.4-1.1 2.5zm-1.4-10.7v8.4h-1.6v-7H21V25zm-4.7 6.5q.4 0 .7.3.2.2.2.7v.4l-.2.6-.7 1.7h-1l.6-1.8q-.3-.1-.5-.4l-.1-.5q0-.5.3-.7.2-.3.7-.3zM17 25v8.4h-1.5v-7h-1.8V25zm-5.2 10.7q-.7-1-1-2.5-.5-1.4-.5-3 0-1.7.4-3.2.4-1.4 1.1-2.5h1.4q-.7 1.3-1 2.7-.4 1.3-.4 3 0 1.5.3 2.9.4 1.3 1.1 2.6zM68.3 115.8q.8-1.3 1.1-2.6.4-1.4.4-3 0-1.5-.4-3-.3-1.3-1-2.6h1.4q.7 1 1 2.5.4 1.5.4 3.1 0 1.7-.4 3.1-.3 1.4-1 2.5zm-3.1-7.2q1.2.1 1.8.8.6.6.6 1.6 0 .7-.4 1.3-.4.6-1.1 1-.8.3-1.8.3t-1.8-.2q-.8-.3-1.4-.8l.7-1.2q.4.4 1 .6.7.3 1.4.3.9 0 1.3-.4.5-.3.5-1 0-.5-.5-.8-.4-.4-1.3-.4h-.8v-1l2-2.3h-3.9v-1.3h5.7v1zm-5.7 3q.4 0 .7.3.3.2.3.7v.4l-.3.6-.6 1.7h-1l.5-1.8q-.3-.1-.4-.4-.2-.2-.2-.5 0-.5.3-.7.3-.3.7-.3zm-2 .6v1.3h-6.1v-1l3.3-3.2q.6-.6.7-1l.2-.8q0-.5-.3-.9-.4-.3-1.2-.3-1.3 0-2 1l-1-1q.4-.6 1.2-1 .9-.3 2-.3 1.3 0 2.1.6.8.7.8 1.8 0 .7-.3 1.3-.3.6-1 1.3l-2.3 2.2zm-8.3 3.6q-.7-1-1-2.5-.4-1.4-.4-3 0-1.7.3-3.2.4-1.4 1.1-2.5h1.5q-.8 1.3-1.1 2.7-.4 1.3-.4 3 0 1.5.4 2.9.3 1.3 1 2.6z" style="font-size:12px;font-family:'Montserrat SemiBold';text-anchor:middle"/>
</svg>